HIERARCHY
ROOT Hips
{
	OFFSET 0.000000 0.000000 0.000000
	CHANNELS 6 Xposition Yposition Zposition Xrotation Yrotation Zrotation
	JOINT LeftUpLeg_virtual
	{
		OFFSET 0.000000 0.000000 0.000000
		CHANNELS 3 Xrotation Yrotation Zrotation
		JOINT LeftUpLeg
		{
			OFFSET 15.427100 -6.655098 0.678600
			CHANNELS 3 Xrotation Yrotation Zrotation
			JOINT LeftLeg
			{
				OFFSET 4.081073 -39.591068 13.024000
				CHANNELS 3 Xrotation Yrotation Zrotation
				JOINT LeftFoot
				{
					OFFSET -4.081074 -37.707932 -15.979700
					CHANNELS 3 Xrotation Yrotation Zrotation
					JOINT LeftToeBase
					{
						OFFSET 5.346399 -15.068900 20.645000
						CHANNELS 3 Xrotation Yrotation Zrotation
						JOINT LeftToe_End
						{
							OFFSET 2.754700 0.931300 11.300900
							CHANNELS 3 Xrotation Yrotation Zrotation
							End Site
							{
								OFFSET 0 0 0
							}
						}
					}
				}
			}
		}
	}
	JOINT RightUpLeg_virtual
	{
		OFFSET 0.000000 0.000000 0.000000
		CHANNELS 3 Xrotation Yrotation Zrotation
		JOINT RightUpLeg
		{
			OFFSET -15.569500 -6.655098 0.678600
			CHANNELS 3 Xrotation Yrotation Zrotation
			JOINT RightLeg
			{
				OFFSET -4.081825 -39.591045 13.023800
				CHANNELS 3 Xrotation Yrotation Zrotation
				JOINT RightFoot
				{
					OFFSET 4.081824 -37.707954 -15.979600
					CHANNELS 3 Xrotation Yrotation Zrotation
					JOINT RightToeBase
					{
						OFFSET -5.346400 -15.068900 20.645000
						CHANNELS 3 Xrotation Yrotation Zrotation
						JOINT RightToe_End
						{
							OFFSET -2.754700 0.931300 11.300900
							CHANNELS 3 Xrotation Yrotation Zrotation
							End Site
							{
								OFFSET 0 0 0
							}
						}
					}
				}
			}
		}
	}
	JOINT Spine_virtual
	{
		OFFSET 0.000000 0.000000 0.000000
		CHANNELS 3 Xrotation Yrotation Zrotation
		JOINT Spine
		{
			OFFSET -0.279200 12.230698 -2.892100
			CHANNELS 3 Xrotation Yrotation Zrotation
			JOINT Spine1
			{
				OFFSET -0.232667 10.192268 -1.242267
				CHANNELS 3 Xrotation Yrotation Zrotation
				JOINT Spine1_split
				{
					OFFSET -0.232667 10.192268 -1.242267
					CHANNELS 3 Xrotation Yrotation Zrotation
					JOINT Spine2
					{
						OFFSET -0.232667 10.192268 -1.242267
						CHANNELS 3 Xrotation Yrotation Zrotation
						JOINT Neck_virtual
						{
							OFFSET 0.000000 0.000000 0.000000
							CHANNELS 3 Xrotation Yrotation Zrotation
							JOINT Neck
							{
								OFFSET -0.418800 17.814194 8.416900
								CHANNELS 3 Xrotation Yrotation Zrotation
								JOINT Head
								{
									OFFSET 0.000000 7.031097 3.806800
									CHANNELS 3 Xrotation Yrotation Zrotation
									JOINT HeadTop_End
									{
										OFFSET 0.000000 24.646606 12.978600
										CHANNELS 3 Xrotation Yrotation Zrotation
										End Site
										{
											OFFSET 0 0 0
										}
									}
								}
							}
						}
						JOINT LeftShoulder_virtual
						{
							OFFSET 0.000000 0.000000 0.000000
							CHANNELS 3 Xrotation Yrotation Zrotation
							JOINT LeftShoulder
							{
								OFFSET 8.476499 7.247704 -3.868750
								CHANNELS 3 Xrotation Yrotation Zrotation
								JOINT LeftShoulder_split
								{
									OFFSET 8.476499 7.247704 -3.868750
									CHANNELS 3 Xrotation Yrotation Zrotation
									JOINT LeftArm
									{
										OFFSET 9.308998 -2.777710 0.208600
										CHANNELS 3 Xrotation Yrotation Zrotation
										JOINT LeftForeArm
										{
											OFFSET 29.972298 0.000000 0.000000
											CHANNELS 3 Xrotation Yrotation Zrotation
											JOINT LeftHand
											{
												OFFSET 26.026505 0.000000 0.000000
												CHANNELS 3 Xrotation Yrotation Zrotation
												End Site
												{
													OFFSET 0 0 0
												}
											}
										}
									}
								}
							}
						}
						JOINT RightShoulder_virtual
						{
							OFFSET 0.000000 0.000000 0.000000
							CHANNELS 3 Xrotation Yrotation Zrotation
							JOINT RightShoulder
							{
								OFFSET -7.570500 7.247704 -3.868750
								CHANNELS 3 Xrotation Yrotation Zrotation
								JOINT RightShoulder_split
								{
									OFFSET -7.570500 7.247704 -3.868750
									CHANNELS 3 Xrotation Yrotation Zrotation
									JOINT RightArm
									{
										OFFSET -9.308998 -2.777710 0.208500
										CHANNELS 3 Xrotation Yrotation Zrotation
										JOINT RightForeArm
										{
											OFFSET -29.972300 0.000000 0.000000
											CHANNELS 3 Xrotation Yrotation Zrotation
											JOINT RightHand
											{
												OFFSET -26.026505 0.000000 0.000000
												CHANNELS 3 Xrotation Yrotation Zrotation
												End Site
												{
													OFFSET 0 0 0
												}
											}
										}
									}
								}
							}
						}
					}
				}
			}
		}
	}
}
MOTION
Frames: 6
Frame Time: 0.03333333
1.592083 72.673103 1.006836 0.000000 0.000000 0.000000 -15.202440 -76.954246 -11.566691 -38.951749 18.333720 57.237299 36.225674 1.760627 -6.341881 6.210472 -6.262478 -28.733899 -2.663586 -0.199590 0.084278 0.000000 0.000000 0.000000 -17.832208 -75.096332 -12.885656 -27.283005 -1.999483 -29.067653 52.421282 10.940026 -6.467414 -22.147182 -4.156803 21.019316 5.526828 1.383866 1.345582 0.000000 0.000000 0.000000 -17.475669 -76.967380 -13.165369 5.268612 -2.140892 -2.253016 3.892301 -0.294511 -3.376892 0.515443 0.751595 0.284533 0.000000 0.000000 0.000000 5.605128 0.058220 -3.025662 -6.123741 21.212896 6.194692 2.054114 19.244365 -8.799250 0.000000 0.000000 0.000000 5.940342 -0.219017 -3.370785 0.026149 -5.110228 -18.306546 -1.884132 -1.739234 -1.085322 -44.432228 -22.819776 -5.423925 -6.459007 -32.846615 -4.365590 0.000000 0.000000 0.000000 4.960543 -0.147252 -2.946875 2.034374 16.095069 5.838676 8.217127 3.689509 2.068237 20.174830 74.614762 -8.372985 74.590044 86.686364 -85.539916 0.000000 0.000000 0.000000 
1.506467 73.012383 1.086788 0.000000 0.000000 0.000000 -16.444196 -76.872092 -13.125487 -38.157603 17.795771 57.397310 36.073053 1.755168 -6.291603 6.555746 -5.957929 -28.307171 -2.159763 -0.219092 0.143555 0.000000 0.000000 0.000000 -19.275205 -75.365646 -14.454845 -27.119485 -1.734777 -28.602997 51.317049 10.980855 -6.121660 -21.705376 -4.245315 21.301803 4.625512 1.465283 1.335512 0.000000 0.000000 0.000000 -18.213169 -77.400469 -14.221663 4.781510 -2.006762 -2.068027 3.665307 -0.276212 -3.330585 -0.013777 0.663362 0.292576 0.000000 0.000000 0.000000 5.455293 -0.071391 -2.940510 -5.774530 21.356825 6.210142 2.565335 19.752545 -9.262431 0.000000 0.000000 0.000000 5.618723 -0.220664 -3.261627 -0.061099 -5.095865 -18.504103 -1.979509 -0.553054 -1.810343 -44.449672 -22.912341 -5.989273 -6.139382 -34.487346 -4.095486 0.000000 0.000000 0.000000 4.821089 -0.172656 -2.956761 2.032307 16.137541 5.635471 8.744438 1.729950 1.917250 18.661953 74.261765 -6.133412 60.982606 86.799178 -71.869368 0.000000 0.000000 0.000000 
1.568408 73.788147 1.053818 0.000000 0.000000 0.000000 -19.865031 -77.375941 -16.923672 -36.158175 17.264941 57.171986 34.900327 2.224500 -6.228395 7.088568 -5.250215 -27.059049 -1.971120 -0.315968 0.159894 0.000000 0.000000 0.000000 -21.854314 -76.136692 -17.398850 -27.056203 -1.953220 -28.237194 49.479588 11.174797 -5.631575 -20.180287 -3.699691 21.588983 4.374375 1.557721 1.354018 0.000000 0.000000 0.000000 -21.456860 -78.119831 -17.891365 4.350340 -1.585179 -1.598528 3.766639 -0.277977 -3.120153 -0.150611 -0.010167 0.061421 0.000000 0.000000 0.000000 5.609263 -0.198993 -2.740894 -5.908230 21.630016 6.451603 3.191784 21.236144 -9.837572 0.000000 0.000000 0.000000 5.526373 -0.272674 -3.001688 -0.340257 -5.329970 -18.906722 -2.764077 0.335426 -2.073214 -42.376174 -21.709148 -7.360994 -6.079597 -36.182319 -4.350612 0.000000 0.000000 0.000000 4.869806 -0.177704 -2.786523 2.040697 15.555971 5.763773 7.952373 0.981437 1.928770 15.924019 71.795185 -1.443076 38.150855 85.968033 -48.634608 0.000000 0.000000 0.000000 
1.671969 74.816841 0.907326 0.000000 0.000000 0.000000 -25.256598 -78.284746 -22.678736 -33.285373 16.767609 56.630601 33.115291 2.911276 -6.194909 7.897994 -4.579229 -25.532980 -2.522868 -0.507158 0.282754 0.000000 0.000000 0.000000 -24.970140 -76.835844 -21.028274 -26.829576 -2.530792 -27.888743 47.394584 11.219219 -5.104336 -18.169690 -2.870845 21.724390 4.600219 1.642588 1.425446 0.000000 0.000000 0.000000 -26.112841 -78.519500 -22.976012 4.134108 -0.980891 -0.951656 4.131615 -0.304965 -2.769169 0.380923 -0.904914 0.289847 0.000000 0.000000 0.000000 5.853860 -0.303360 -2.486696 -6.373638 21.810532 6.859954 3.932766 23.439587 -10.464118 0.000000 0.000000 0.000000 5.691605 -0.361879 -2.682065 -0.736710 -6.033324 -19.598470 -3.546319 0.697086 -2.038941 -37.906375 -19.922391 -9.514479 -6.154862 -38.763127 -4.971256 0.000000 0.000000 0.000000 5.110217 -0.132136 -2.493173 2.061875 14.649719 6.303601 6.264759 1.549287 1.880183 13.291318 67.504754 4.402596 22.245793 84.092032 -31.964343 0.000000 0.000000 0.000000 
1.751630 75.938644 0.860737 0.000000 0.000000 0.000000 -31.172796 -79.062513 -28.831260 -29.878782 16.404154 55.836260 31.140390 3.588289 -6.226098 8.726468 -4.192400 -24.142005 -3.840878 -0.772342 0.626495 0.000000 0.000000 0.000000 -26.682552 -76.819568 -23.264519 -26.084815 -3.308869 -27.492116 45.332795 10.840700 -4.733396 -16.226759 -2.345289 21.701917 4.266758 1.681443 1.530318 0.000000 0.000000 0.000000 -30.825614 -78.356053 -27.945972 4.246513 -0.395454 -0.269939 4.583063 -0.378819 -2.324292 0.795738 -1.477022 0.909099 0.000000 0.000000 0.000000 5.991227 -0.407815 -2.213197 -6.882822 21.958307 7.357550 4.808229 25.754997 -10.998001 0.000000 0.000000 0.000000 6.032965 -0.511389 -2.374635 -1.191288 -7.261166 -20.547325 -3.316525 0.556352 -1.883582 -30.760143 -18.416367 -11.947737 -6.106063 -43.041605 -5.599464 0.000000 0.000000 0.000000 5.449460 -0.062783 -2.123805 2.020302 13.483069 7.358567 4.189712 2.901092 1.758450 11.599394 62.125249 10.061716 12.786077 81.037285 -21.402003 0.000000 0.000000 0.000000 
1.853563 76.894463 0.767384 0.000000 0.000000 0.000000 -34.638007 -79.249114 -32.392596 -26.319454 16.120964 54.759662 29.026883 4.372773 -6.359558 9.030844 -4.041772 -23.016617 -5.087442 -1.063870 1.046641 0.000000 0.000000 0.000000 -25.549748 -75.880369 -22.593653 -24.591632 -3.928951 -27.043818 43.426025 10.023192 -4.679704 -14.756053 -2.442068 21.679502 3.173211 1.643209 1.659923 0.000000 0.000000 0.000000 -33.762861 -77.651813 -30.826269 4.666500 0.023968 0.305304 4.964073 -0.540524 -1.816345 0.706205 -1.633960 1.219016 0.000000 0.000000 0.000000 5.886362 -0.542586 -1.910860 -7.042123 22.100206 7.838233 5.677509 27.835294 -11.357798 0.000000 0.000000 0.000000 6.438327 -0.733679 -2.098198 -1.594270 -8.870453 -21.436721 -3.035181 0.004479 -1.781928 -21.866234 -18.860802 -13.866425 -5.698757 -49.430236 -5.872106 0.000000 0.000000 0.000000 5.784176 -0.012034 -1.683030 1.866311 12.230036 9.034006 2.096539 3.794575 1.404391 10.923821 56.696567 14.761089 7.332548 76.379355 -14.550680 0.000000 0.000000 0.000000 
